<mxfile host="65bd71144e">
    <diagram id="iCiZSFzc9DV2CADZvFu-" name="Page-1">
        <mxGraphModel dx="744" dy="565" grid="1" gridSize="10" guides="1" tooltips="1" connect="1" arrows="1" fold="1" page="1" pageScale="1" pageWidth="1100" pageHeight="850" background="#ffffff" math="0" shadow="0">
            <root>
                <mxCell id="0"/>
                <mxCell id="1" parent="0"/>
                <mxCell id="FmoVLtVw1m3AJYynedUR-1" value="AWS Cloud" style="points=[[0,0],[0.25,0],[0.5,0],[0.75,0],[1,0],[1,0.25],[1,0.5],[1,0.75],[1,1],[0.75,1],[0.5,1],[0.25,1],[0,1],[0,0.75],[0,0.5],[0,0.25]];outlineConnect=0;gradientColor=none;html=1;whiteSpace=wrap;fontSize=12;fontStyle=0;container=1;pointerEvents=0;collapsible=0;recursiveResize=0;shape=mxgraph.aws4.group;grIcon=mxgraph.aws4.group_aws_cloud_alt;strokeColor=#232F3E;fillColor=none;verticalAlign=top;align=left;spacingLeft=30;fontColor=#232F3E;dashed=0;" parent="1" vertex="1">
                    <mxGeometry x="110" y="80" width="660" height="370" as="geometry"/>
                </mxCell>
                <mxCell id="FmoVLtVw1m3AJYynedUR-12" style="edgeStyle=orthogonalEdgeStyle;rounded=0;orthogonalLoop=1;jettySize=auto;html=1;" parent="FmoVLtVw1m3AJYynedUR-1" source="FmoVLtVw1m3AJYynedUR-2" target="FmoVLtVw1m3AJYynedUR-6" edge="1">
                    <mxGeometry relative="1" as="geometry"/>
                </mxCell>
                <mxCell id="FmoVLtVw1m3AJYynedUR-2" value="Kinesis Firehose" style="sketch=0;points=[[0,0,0],[0.25,0,0],[0.5,0,0],[0.75,0,0],[1,0,0],[0,1,0],[0.25,1,0],[0.5,1,0],[0.75,1,0],[1,1,0],[0,0.25,0],[0,0.5,0],[0,0.75,0],[1,0.25,0],[1,0.5,0],[1,0.75,0]];outlineConnect=0;fontColor=#232F3E;gradientColor=#945DF2;gradientDirection=north;fillColor=#5A30B5;strokeColor=#ffffff;dashed=0;verticalLabelPosition=bottom;verticalAlign=top;align=center;html=1;fontSize=12;fontStyle=0;aspect=fixed;shape=mxgraph.aws4.resourceIcon;resIcon=mxgraph.aws4.kinesis_data_firehose;" parent="FmoVLtVw1m3AJYynedUR-1" vertex="1">
                    <mxGeometry x="361" y="226.5" width="78" height="78" as="geometry"/>
                </mxCell>
                <mxCell id="FmoVLtVw1m3AJYynedUR-10" style="edgeStyle=orthogonalEdgeStyle;rounded=0;orthogonalLoop=1;jettySize=auto;html=1;" parent="FmoVLtVw1m3AJYynedUR-1" source="FmoVLtVw1m3AJYynedUR-3" target="FmoVLtVw1m3AJYynedUR-5" edge="1">
                    <mxGeometry relative="1" as="geometry"/>
                </mxCell>
                <mxCell id="FmoVLtVw1m3AJYynedUR-3" value="Textract" style="sketch=0;points=[[0,0,0],[0.25,0,0],[0.5,0,0],[0.75,0,0],[1,0,0],[0,1,0],[0.25,1,0],[0.5,1,0],[0.75,1,0],[1,1,0],[0,0.25,0],[0,0.5,0],[0,0.75,0],[1,0.25,0],[1,0.5,0],[1,0.75,0]];outlineConnect=0;fontColor=#232F3E;gradientColor=#4AB29A;gradientDirection=north;fillColor=#116D5B;strokeColor=#ffffff;dashed=0;verticalLabelPosition=top;verticalAlign=bottom;align=center;html=1;fontSize=12;fontStyle=0;aspect=fixed;shape=mxgraph.aws4.resourceIcon;resIcon=mxgraph.aws4.textract;labelPosition=center;" parent="FmoVLtVw1m3AJYynedUR-1" vertex="1">
                    <mxGeometry x="281" y="85.5" width="78" height="78" as="geometry"/>
                </mxCell>
                <mxCell id="FmoVLtVw1m3AJYynedUR-8" style="edgeStyle=orthogonalEdgeStyle;rounded=0;orthogonalLoop=1;jettySize=auto;html=1;" parent="FmoVLtVw1m3AJYynedUR-1" source="FmoVLtVw1m3AJYynedUR-4" target="FmoVLtVw1m3AJYynedUR-5" edge="1">
                    <mxGeometry relative="1" as="geometry"/>
                </mxCell>
                <mxCell id="FmoVLtVw1m3AJYynedUR-4" value="S3 Bucket" style="sketch=0;points=[[0,0,0],[0.25,0,0],[0.5,0,0],[0.75,0,0],[1,0,0],[0,1,0],[0.25,1,0],[0.5,1,0],[0.75,1,0],[1,1,0],[0,0.25,0],[0,0.5,0],[0,0.75,0],[1,0.25,0],[1,0.5,0],[1,0.75,0]];outlineConnect=0;fontColor=#232F3E;gradientColor=#60A337;gradientDirection=north;fillColor=#277116;strokeColor=#ffffff;dashed=0;verticalLabelPosition=bottom;verticalAlign=top;align=center;html=1;fontSize=12;fontStyle=0;aspect=fixed;shape=mxgraph.aws4.resourceIcon;resIcon=mxgraph.aws4.s3;" parent="FmoVLtVw1m3AJYynedUR-1" vertex="1">
                    <mxGeometry x="81" y="226.5" width="78" height="78" as="geometry"/>
                </mxCell>
                <mxCell id="FmoVLtVw1m3AJYynedUR-9" style="edgeStyle=orthogonalEdgeStyle;rounded=0;orthogonalLoop=1;jettySize=auto;html=1;" parent="FmoVLtVw1m3AJYynedUR-1" source="FmoVLtVw1m3AJYynedUR-5" target="FmoVLtVw1m3AJYynedUR-3" edge="1">
                    <mxGeometry relative="1" as="geometry"/>
                </mxCell>
                <mxCell id="FmoVLtVw1m3AJYynedUR-11" style="edgeStyle=orthogonalEdgeStyle;rounded=0;orthogonalLoop=1;jettySize=auto;html=1;" parent="FmoVLtVw1m3AJYynedUR-1" source="FmoVLtVw1m3AJYynedUR-5" target="FmoVLtVw1m3AJYynedUR-2" edge="1">
                    <mxGeometry relative="1" as="geometry"/>
                </mxCell>
                <mxCell id="FmoVLtVw1m3AJYynedUR-16" style="edgeStyle=orthogonalEdgeStyle;rounded=0;orthogonalLoop=1;jettySize=auto;html=1;" parent="FmoVLtVw1m3AJYynedUR-1" source="FmoVLtVw1m3AJYynedUR-5" target="FmoVLtVw1m3AJYynedUR-15" edge="1">
                    <mxGeometry relative="1" as="geometry"/>
                </mxCell>
                <mxCell id="FmoVLtVw1m3AJYynedUR-5" value="Lambda" style="sketch=0;points=[[0,0,0],[0.25,0,0],[0.5,0,0],[0.75,0,0],[1,0,0],[0,1,0],[0.25,1,0],[0.5,1,0],[0.75,1,0],[1,1,0],[0,0.25,0],[0,0.5,0],[0,0.75,0],[1,0.25,0],[1,0.5,0],[1,0.75,0]];outlineConnect=0;fontColor=#232F3E;gradientColor=#F78E04;gradientDirection=north;fillColor=#D05C17;strokeColor=#ffffff;dashed=0;verticalLabelPosition=bottom;verticalAlign=top;align=center;html=1;fontSize=12;fontStyle=0;aspect=fixed;shape=mxgraph.aws4.resourceIcon;resIcon=mxgraph.aws4.lambda;" parent="FmoVLtVw1m3AJYynedUR-1" vertex="1">
                    <mxGeometry x="221" y="226.5" width="78" height="78" as="geometry"/>
                </mxCell>
                <mxCell id="FmoVLtVw1m3AJYynedUR-13" style="edgeStyle=orthogonalEdgeStyle;rounded=0;orthogonalLoop=1;jettySize=auto;html=1;" parent="FmoVLtVw1m3AJYynedUR-1" source="FmoVLtVw1m3AJYynedUR-6" target="FmoVLtVw1m3AJYynedUR-7" edge="1">
                    <mxGeometry relative="1" as="geometry"/>
                </mxCell>
                <mxCell id="FmoVLtVw1m3AJYynedUR-6" value="AWS OpenSearch" style="shape=image;verticalLabelPosition=bottom;labelBackgroundColor=none;verticalAlign=top;aspect=fixed;imageAspect=0;image=data:image/png,iVBORw0KGgoAAAANSUhEUgAAADwAAAA8CAYAAAA6/NlyAAAAAXNSR0IArs4c6QAAAIRlWElmTU0AKgAAAAgABQESAAMAAAABAAEAAAEaAAUAAAABAAAASgEbAAUAAAABAAAAUgEoAAMAAAABAAIAAIdpAAQAAAABAAAAWgAAAAAAAABIAAAAAQAAAEgAAAABAAOgAQADAAAAAQABAACgAgAEAAAAAQAAADygAwAEAAAAAQAAADwAAAAAeOWEXwAAAAlwSFlzAAALEwAACxMBAJqcGAAAFL9JREFUaAW9WguUVdV5/u+dO2+GgYEZGBx5iEi1wcQHJqtZElc0Sk21tWjSBppE0D5SF102TbOSVNPYPMyy2pgVTWpWsooSV1V8xJRYrSFFo5S0MdGoVAUUh5mB4TUwMDN3Xrff9/17n3PuMAO4ND2XuWefvf/H9/37P/t1yX324l+XLJezPP7Mcvjgm2X8JWXW81kyLqVnSkiUspR23UQul1etP1M/1S2XdW3JZfyqVs+uK+3QLnyhjbaEP9HNs8oxC2Dq11tKJRvFn1kJH3yzjL+kzHo+S8al9EwJiVKW0q6byJVGVevP1E91y2VdW3LRB/1RO9y9mjZcVvVRBsaEP7SV4DexLxup37wTRTOEj02aIu5QxggnOnyHSYu4IGXIyV/wHIhF0qTDa0LSDEAINno4EoXGMUlnogY5XoTzmyRNL+wt0Q7BddfRrwSSjiKmcUlTDB/+y0foJ9bT7xxp9+/ACTTNHkHTM77Y5G1SYBt1VBvqJXB80iFgee8hN/D/SVq0ANwJZIiJjVqdUBlpJ+c6Y0mH3mVgcI3b07CVZ7jeOumxAFPggkoitBucp73H+nQgS2QpmSWmsmtHXXo8dnrT6fFJe0qfKGlaDETKRsIINgBPiARZRjwC9/JbJ02/iZ0yHKp1+6o/Nuk0pQlOAN3AuOmtIEbSHvEERAR0gqRJgBTcJ32jHHTLbWbkoo+g6zZcV9qql6EJ3+mCC8IFJ+1oSBM4R+8woaOew1UeC4dSiasHrFVoF3J0ygUDgfNSmVT4KFG08YFlfKIcn6trclZRgQIv+eSNglpy2FARZoZhX3MJ6oMPthunGsrRFU3gK4cHidAEnplHxIwnBYCLjgIBSJ+SXBnhTqwyhtKEpNEW/AhIDrqRzFjSblB+oeOkp84o2Iovt1jNJPgUKDpNr5Ghkm15ZsD+/c5eq6pxGXkkXopBSf7wMDFppDdEs6RF2PVpgFHLkCY8WBuXNN0G597To5ClDVqDGXxKQkJsAZw3WGnErKo+Zw3TKuyn9xy0Q3tHLO+oJMsAXLSq0ZpOKohUEkjox6yiKQgLA6GMTxooAIikISLbSGnqOEoHNn6qnBjpmC3ugWk1Hmn1EQ3i2rKpz7pfH7Y8Upv4mZoVhZwtWT5ZWRvi5xjLiDmJJABlbd5RogWjylraxlVgAqNqDGm4yQqG9+OdIk0gkUihKmeV1Ui7CifAb5UFkIIlK/azj9hCImzgHd/oVtUhO6pgg7mbkAuYy0hDxFOayvgc3dMhveVcEieY3sfuaZKIhOlTH1aQBefpEocXlxgeKdkFyxus9dRK1PEiGCcaH/d3jNjmBwegOn52Zkmrh2V7QtKMWnDPXofwhD1NQ/AZR3K+lnTmvYEyfRBvAC3A0gHlhCM9OFnqVlaZLb6szqrr8jZwmIRcize1V+ds9qJKe279gBX7QiX9QJf++JWO3jnDqMA6fqGRgviU9zQaSBTWKaIySuORHh42a1tQY7N/qzaQlkkZpm+mI9Nzy7N9iQ+CpmW977zThxyxgCLK7Lgdvy7a/V8+YNW1yDrU09bwoNm7LqixD66c5CrEyIhSKWKmcIa0T0skeUzSjGxm9KYxuBhLeniwZJesbLbTzplErBNed1zXbqNIVV0EiYJIy2qoD9reinY4GxzgTAAo/ADvcBGkMX0ldmDL+ZE0MbOjxFdf1ElSWhTeJmki50LicM+I3bn6dfep6QYA4L9ldpV98qttvoAJhIDEezsDjIHEP7/YW7j4TTK6iBNkSjmS8hZ+84+9Kzm2UxcPosVK9LRPSxRV2/F6mkKMWog7y1CMPe21eEbv7d81mBDWdAdsXGTwymFEPnxg2J574pD19WJSBpjkNZKEqtJ6uOXlMgyQ0AszSXgjHJAGMEHA62I5YkZTWGkRNqXpY3zSNCE3jGBMb1RQnqnivRIDgRkCg2pphGdlkKEi5taDe4bs7hs7bF/HoA32l+yH3+xGG/XpH3dC0BcyBfKcnhw7vRMeydI/66nDutBCXXzoSt+UY1nCzAS3X77Sojr+oSlxLC18NUwpWE1tRXikKUrRjpeLfSPW041RK17wkUAIzjlgvbyp1wqFvAhxyVgFm3l0PAegIQRhFCaGoXvHpzrMELDKGpihC10hoAlp0uWfe0qyBPJZ0iSrNtQfvdIah3RNXYWt/sZCvIP0Pv7VsbXfbln5auiRCIABcefAaEMDIzZzXo0tWtJg899Tr3e6vhFBRBoU+0Ztf9eQ7XylaC//7Ihtf25A9bXhNaBXgo7LX1qNdSqEr/FIq0lAOGhhNJto4R97mqk1paXKnljbZS8924OVESrYwyAzVBy1K65rs2kzq5WCqXOCw1hFXOix4cFRW7qqxc5fNk1z6psv99vmH/XYvs4hTTsNUws2d1GtnXNxg5334cn22i/67eHb9thA76jW2XCVBpMjsM4unDR9ejDQr7E3UReDTUXqswKjNK7jkaYCNLpe77MtPz8IwExtVKByED1z5OCwNYFwjC5N+n4aqQTGnDtX3TzbFpw9yV75n8P2b3d2W8erA1ZRmbcaLCh4pjyEKW3jfQdsclPBLvjjJjvvssm2+q42W3vDLvvmNTvV20xv+tBrBMzEHn2KcMxO2Iv1xC26jD4uf4dVO0FPS8y/KMbBhH8o6qqodOL+5IGhHC86LYDU8r9rs/nvrreHbu+0px7Yb81tVbb0mmalddPMSmQGpjKM2h2vFe35Db326Le67aVnDtuyv5lhK/5hpn3vM122540hZFa6BWWwAwf3JX/4CoPeRD2N4YKp54PBuMc2bAvttExJPSNgKitnPXqqR7axV4mmr3fYLrm6xRYubrA1N+6wjQ/stfN+d4r91bdPsYs/2WwFLBuf33jI/vuxHjuwe8jOXTrZrr75JLvyb2fgXR6wNZ/vtL5DI7biSzM06o9yyUUMARMR+B9vbBMoxwUZXllZ1qCHmZkkgafj9LSUo1HoxOWg/EK9EqPudz+/TYuPIgaoeWfW2weuaranHtxrv9p40M6+cKp97AttxgHue5/bYW+8hLQO8xbxMp0v/dNme+/vTcHonbcHbt5t67+z11Z8sdU+tHKq/fjO/XidmKBMIccceAkC8elN45Q1QU+HlRYHoIlJ01pMYUaGH3mg2+AERT758g8kRtHLH75mJnpo2Dbc222t82uQ2ifb//681+65qd2KR0attsGnORJgCnLp+OBtuzVaX7Kq2fa2D9oT399nWy9rtPdc2GCbHj5oh/djEOOYSVJiy57iJVQEdEzS4RAvkKWSCFEvkz6BHaNG8+4ouignjzWJrumzqmzOGfX28uZDtmtHv/3BdbOMxzaPfKsTI/sI3keEkL6k7n65AuPeeOP9B2z78332O1dMsabWSnv6gQPG6WnuoprEvyOJGGRKmCM+tWdsExRxC56TLHdOxVGNhA5GLGggU+fGZYrmUjCQmTmvFiAr7JcbejBIVdvc366zF585aF3b+jXi0qeP5MGvmLuNUaw8NqzdZ5yjFyyuszde6Efvl6xtIYdp7pcFBLMdOoUg6B31LDs+3mkr2NbdBdXDruACUsoIQJNPMkqL9KU61kejoTXKUmZKi2/YO7f32Yy51ZiaKkSYIU7sQTAhLbNQRF0FTkF2YJ7mTqh1frUNYBW3t71ok3EGFi/pUTxU8B7tHou0pzQRUgF3KckQSnpWgwxTLEgEOVa4rvQppaqSpywqi/0jmGvxriKDD+4b0p06TtRtH0UaRopI+4HD1PUjVq7EGAjOvsLoqnTrV/BLzLwiacdHLo49nZYSwWAwCCSk3awIJkbh2t90b3RZdzgIorxq6vPWd3hIs0bj9IJ2Uu7qGKS5WMGZdU19hfVjN8VgVaPMVZ0GXxjwj9OnHz7rzraES3Zxwnqsz4KYhFJBN+c2XCIx5mbdKJv47mQukUbd/t3YHqJ91vw669zer55edP6UdFyQzvikB0Fs3pl1mKdztvO1AatCLzdjL93TjWVo8q7CuPw7VUfMCvYJycVyOen0pxbGqEwwmKBd1MdpSakS6iThdlNHIdId2/r07p1z0VTb0z5grz7Xa2e8d7K1nVYXepnagleW3vSVx5bmoj9pVu9u+a9eO/WsOpxt5ax9S79jpKb+RRtkGYhGq2VcUtLJOxydj0da1twmHPLJe1WycpBoa7fAPfnezgHb+stDINlosxbU2rrb39QvCMtWt2FRgXcRP6FwRRY1+R5z7h7B4cGFy5tt9um1mL/3WA/20Es+Og1LzxHb+iuc0sF29Ot3XyPQUsSeWB2HdDotsTFEPCr6YzCUEOMznYZUTvRYBw0sOvJ4Ufje/fCudo3OSz/eio0HVlc3bMP6eZJ96tZT7bTFk7CAwOB0BIMTRuERTEUts6tt2fWztBzd9KN99h/37MFysxHrcKa3YbSvMqY7Qy60DkQwA3g2OfFQkeVCzMn2kGhFGEixhnHwNIVn1bNWMmxDDRnBgNpcAHPliK380mnW0lZrt/3Fi7ZjyxF79J/b7fI/OxnLyCO24f5dNgCCn7jxFPvzr5+KY6AiFiUD2DqWNFdPm1WtLFh/V5dt+Ne92i9fsboV6+p++bv6KyfbD27qsBc29lr95IqyAZNzsuOCqE5DiJH/4oqMJjLbQ6wGGBqP1hjSMuQtiQgLPD7xd9r1mKKNWA83zahiyLT1e+IHnTbn9Em2/HPzRGbDfbvthmUv2JI/bLFzL2qykxfW68SDZ1ubH9unDcau7QN2ypmT7Nqvz9X7fvfftyNQo9pifvymNlt3a5f94vFDjpc4Amz6VA+QaCiOJc1fqwSc9+yWij0Y+9athHhQXlYRgWg0BoMtrAv1ChTKd39lm/1RcZ5ddf0cO/19jfaf9++2DfftssfXdGnqqajI+88pyFYG4Mq/brMLPtIsq3yP93YUEawK+5cb2u2qT8+yKz/dikVIwX5yzz7biX31Y9/dg9MUKNNvZEr8woGvTE9r86AGVDpp72mIMQdURwJ+cbgiKVbAoBS90YkmgokeN/fF/mFbc9Nr9uKzB+yj18+1M25ttENYhLz+4mHrxgqKA9iUZl97Tz/J0/rJtd02HUvSD36sWe/449/vFnD29u//Zau2l5OnV9q6WzphY1A7NHaYdxNwOMSj0lvbQ4bCSZMgIjUmvdmjHo9giLcQpaS3EQL68CsNiusCBjb5mx/bY88/dcDef/kMW/yhJlt4bqOd8T5qYNTG6Nx7YMg2rd9nP3tor+16A/MverU0Otsuxa6rvrFgP75rN6asnD2Mg4ShoVFbcuU0vcvrbunSMVFEoEwlGgICcEF1NzzEIzivTUmn6R2JRmK8qxzYpb0PS+pmWpZVJoy/JvSMOHKPy6R58t5O++l9XVY3qYDfiCvRO3kdFfX2DOvkslCFox+s0Dgm3Pu1duvdP6R9dR22kw/d3qVz7fXf2aVTkkuvnYGD/2Hsm3nkm56IlJNGwAGBuMPmAcVQwYI+Ydrx9EWjrtjmz+FJ9GjOTbokH6nr+uAL8M1I168+crbNxbaxEktHpuRBrJ64MDmE3uVVhTOuCuw7uDceQaozUo/c0WkPfqPDFi+daqu+Nke9xp77ydo99iSmrndfMFkHg2XrAxLC5VwcKTFpaRlJlZMm4LhCoWoYwqKhcGeA4hXJ8ZkudEd7JM605paRLbPm1dmN956pnRTbNR6ohfJmi85vtAVnTVKqc4n5NNJ83T/t1DaTR0Q85eTF8zXKuw+/sz76VJloiAOfMaM0BcvTmzQpHC8ZR9Q1ONARjYdGl/Mn/0Yea8udSETJZDkZV1uUiK8PTzRWfGGO7cZ7/I/XvmLVCBQPDPhuHzk4Yh/5TJut/vZ8vef84e7pdfs0v/O/TRA+AE+Y3jq1lEwYkf2WkiZkUqLM0CBWRRhxefEd4cVfHJJfAlUjfxqZNf7luNvh+4g01SqJQgxi0EfdIGzm8R7TCQPJU0xuB7np18XeQRvPzF54qkeBuHB5C46Gq+zRO7owGPa4GHFCJf68Mt47nfn1MAoyOgRN726AERvBieHp5zbJcGWVb8QhofPkphn+i4R6GJXVGF3Pv3ymD/ghMEyDqTi75uW96WTO+kATFiZYfEDOg4g7uHOAo39PRRadNEfp7p1FW/PFHbCEI2McE1fXFvQbVhZz/FFNgxd0ebHsP7Uo4iH5yALtWdKcAnZuPWzvv7TVllx2kgDLQihxabjjlV4bxnp4144+m7OwwVZ8doF6i3LujkEs2YHuIjb2zJIcNgZFW/qJWYGoW4zf9Nn9Jv4bg0gjPRCF+Kslf5rx/+7EfABgpA9fMlR7R8GjaOiLHZgZvZe96+GS/je5PFEJUvqXiTieGcUqHKorEhBgtCjK/6vAHuFPKRxZKysrMKUU5DDpMQlSlfOtn4LQD3+cy+OHNYJ2WZchALbzqHcEsYn45JOW0eY6BB0wqxjLbA22JBvKqNWgpaEFDUCPwYQ9zZcfhUxPc7U02O/OHADlA5hglM7Zy0cO4SiHjWOAOWCvp59+vP85/qitKifhOg7QYQsGqjkaO6CY3nyxOboLM/Gj3blQx5+JI01v4IUJFwx5TtH0gMzfIdaxGd+JrJxL1WVkR3Lps79/qa4/uz9367JlZTjSJ9zL2qQad2hRThLJqC/S4sJ2wnXMsYyFR2ogOViD6PFIO6hUNyGTIZ2ApWv9g5aIEIj3rJ4FkCLeXi5LqA5c4FWmXxqUBkusPSHSePuolwJ/a6RT3Qg8Oo/Pbt+BCSO+1Bb8Ju3jkqb9oCt51010vJDYOxHSYWmZAod2GqkYNQYzAFUpPFOWBAlKF59DncuNBSjFxJbrHqun5TXYdB+yH/xlOyrrN+k0yHk5xYl3OAvqeD0dyVFHlFgRCKS6WeflAF1WUQp+j0/a/bjNt08aE1Rq0DMkBZ5ECkIqixw5CuYY0qx33UgywJO867iuaKuRgeOT67p/r1M5BMUxprpHyWVeyWgP0mmmwkfsafWwG8w4yhjIkhboBOBEpJ0mo5F1rjLqErAiE2glNt9OenvgxvpN8MMHy35MG0JIFZECjthbNBCVkvYE4HikaSPNkneWNPvNMfKeBA941BJwEXPWb8TP+v8DbO8oo1/CKN4AAAAASUVORK5CYII=;fontColor=#000000;" parent="FmoVLtVw1m3AJYynedUR-1" vertex="1">
                    <mxGeometry x="501" y="226.5" width="78" height="78" as="geometry"/>
                </mxCell>
                <mxCell id="FmoVLtVw1m3AJYynedUR-14" style="edgeStyle=orthogonalEdgeStyle;rounded=0;orthogonalLoop=1;jettySize=auto;html=1;" parent="FmoVLtVw1m3AJYynedUR-1" source="FmoVLtVw1m3AJYynedUR-7" target="FmoVLtVw1m3AJYynedUR-6" edge="1">
                    <mxGeometry relative="1" as="geometry"/>
                </mxCell>
                <mxCell id="FmoVLtVw1m3AJYynedUR-7" value="AWS Congito&lt;br&gt;for OpenSearch Dashboard Auth" style="sketch=0;points=[[0,0,0],[0.25,0,0],[0.5,0,0],[0.75,0,0],[1,0,0],[0,1,0],[0.25,1,0],[0.5,1,0],[0.75,1,0],[1,1,0],[0,0.25,0],[0,0.5,0],[0,0.75,0],[1,0.25,0],[1,0.5,0],[1,0.75,0]];outlineConnect=0;fontColor=#232F3E;gradientColor=#F54749;gradientDirection=north;fillColor=#C7131F;strokeColor=#ffffff;dashed=0;verticalLabelPosition=top;verticalAlign=bottom;align=center;html=1;fontSize=12;fontStyle=0;aspect=fixed;shape=mxgraph.aws4.resourceIcon;resIcon=mxgraph.aws4.cognito;labelPosition=center;" parent="FmoVLtVw1m3AJYynedUR-1" vertex="1">
                    <mxGeometry x="501" y="65.5" width="78" height="78" as="geometry"/>
                </mxCell>
                <mxCell id="FmoVLtVw1m3AJYynedUR-15" value="DynamoDB" style="sketch=0;points=[[0,0,0],[0.25,0,0],[0.5,0,0],[0.75,0,0],[1,0,0],[0,1,0],[0.25,1,0],[0.5,1,0],[0.75,1,0],[1,1,0],[0,0.25,0],[0,0.5,0],[0,0.75,0],[1,0.25,0],[1,0.5,0],[1,0.75,0]];outlineConnect=0;fontColor=#232F3E;gradientColor=#4D72F3;gradientDirection=north;fillColor=#3334B9;strokeColor=#ffffff;dashed=0;verticalLabelPosition=top;verticalAlign=bottom;align=center;html=1;fontSize=12;fontStyle=0;aspect=fixed;shape=mxgraph.aws4.resourceIcon;resIcon=mxgraph.aws4.dynamodb;labelPosition=center;" parent="FmoVLtVw1m3AJYynedUR-1" vertex="1">
                    <mxGeometry x="171" y="85.5" width="78" height="78" as="geometry"/>
                </mxCell>
            </root>
        </mxGraphModel>
    </diagram>
</mxfile>